# xmcd
#
# Track frame offsets:
#	150
#	20658
#	46842
#	63102
#	77235
#	95940
#	109736
#	131754
#	156770
#	164705
#	183670
#	199951
#	218201
#	233310
#	247658
#
# Disc length: 3493 seconds
#
# Revision: 0
# Processed by: cddbd v1.5.1PL0 Copyright (c) Steve Scherf et al.
# Submitted via: EasyCDDAExtractor 4.6.9.1
#
DISCID=cd0da30f
DTITLE=World Music - Greece
DYEAR=1900
DGENRE=
TTITLE0=Alexis Boulgourtzis - Oriental
TTITLE1=Yorgos Kazantzis - The Song
TTITLE2=Evdokia Chrisovergi - Tis Lismonias
TTITLE3=Thanassis Moraitis - The Waltz
TTITLE4=Loudovikos Ton Anoyion - The Colour of Love
TTITLE5=Vassilis Saleas - In The Gardens of Memory
TTITLE6=Thanassis Moraitis - Sweet Mother Mine
TTITLE7=Eleni Vitali - Mona Stolidia
TTITLE8=Dimitris Christodoulou - A Grieved Virgin Mary
TTITLE9=Mikis Theodorakis and Kostas Papadoupoulos - Zorba's Dance
TTITLE10=Maria Farantouri - The Words of Heaven
TTITLE11=Maria Farantouri - I had Three Lives
TTITLE12=Irene Pappas - Denial
TTITLE13=Mikis Theodorakis - Strefi
TTITLE14=Nicos - The Train Leaves at Eight
EXTD=
EXTT0=
EXTT1=
EXTT2=
EXTT3=
EXTT4=
EXTT5=
EXTT6=
EXTT7=
EXTT8=
EXTT9=
EXTT10=
EXTT11=
EXTT12=
EXTT13=
EXTT14=
PLAYORDER=
